<svg xmlns="http://www.w3.org/2000/svg" width="18" height="17.1" viewBox="0 0 18 17.1">
  <g id="message-square" transform="translate(-2 -2)">
    <path id="_-Icon-Сolor" data-name="🎨-Icon-Сolor" d="M11,8.3a.9.9,0,1,1-.9.9A.9.9,0,0,1,11,8.3Zm3.6,0a.9.9,0,1,1-.9.9A.9.9,0,0,1,14.6,8.3Zm-7.2,0a.9.9,0,1,1-.9.9A.9.9,0,0,1,7.4,8.3Zm10.8,5.4a.9.9,0,0,1-.9.9H7.9a2.7,2.7,0,0,0-1.39.385L3.8,16.611V4.7a.9.9,0,0,1,.9-.9H17.3a.9.9,0,0,1,.9.9ZM17.3,2H4.7A2.7,2.7,0,0,0,2,4.7V18.2a.9.9,0,0,0,1.364.771l4.072-2.443A.9.9,0,0,1,7.9,16.4h9.4A2.7,2.7,0,0,0,20,13.7v-9A2.7,2.7,0,0,0,17.3,2Z" fill="#183c7c"/>
  </g>
</svg>
