 <svg
              xmlns="http://www.w3.org/2000/svg"
              width="20"
              height="20"
              viewBox="0 0 20 20"
              className="stroke-white hover:stroke-red fill-none"
            >
              <g id="settings" transform="translate(-1.998 -2)">
                <path
                  id="_-Icon-Сolor"
                  data-name="🎨-Icon-Сolor"
                  d="M4.4,11.622a3.841,3.841,0,0,1,2.377,2.5l.04.12a4.043,4.043,0,0,1-.461,3.622.367.367,0,0,0,.036.508l2.072,1.574a.253.253,0,0,0,.188.05.273.273,0,0,0,.182-.119l.231-.328a3.77,3.77,0,0,1,6.205.025l.118.171a.272.272,0,0,0,.182.12.231.231,0,0,0,.188-.05l2.061-1.555a.373.373,0,0,0,.069-.494l-.26-.375a3.968,3.968,0,0,1-.532-3.359,3.915,3.915,0,0,1,2.492-2.614l.2-.068a.347.347,0,0,0,.191-.437L19.2,8.393a.317.317,0,0,0-.155-.193.235.235,0,0,0-.187-.015l-.34.113a3.743,3.743,0,0,1-3.431-.564l-.108-.081a3.79,3.79,0,0,1-1.489-3.035l0-.28a.353.353,0,0,0-.1-.254A.254.254,0,0,0,13.2,4L10.657,4a.313.313,0,0,0-.284.333v.242A3.926,3.926,0,0,1,8.85,7.669l-.129.1a3.915,3.915,0,0,1-3.635.6.162.162,0,0,0-.133.009.238.238,0,0,0-.118.148l-.817,2.6a.357.357,0,0,0,.221.449ZM8.614,22a2.228,2.228,0,0,1-1.356-.461L5.186,19.966A2.362,2.362,0,0,1,4.7,16.75a2.046,2.046,0,0,0,.231-1.857l-.055-.168a1.837,1.837,0,0,0-1.118-1.211h0l-.163-.057a2.344,2.344,0,0,1-1.481-2.94l.816-2.6A2.23,2.23,0,0,1,4.05,6.588a2.157,2.157,0,0,1,1.683-.116,1.916,1.916,0,0,0,1.777-.3l.129-.1a1.913,1.913,0,0,0,.733-1.51V4.326A2.314,2.314,0,0,1,10.656,2h0l2.547,0a2.245,2.245,0,0,1,1.6.67,2.345,2.345,0,0,1,.683,1.675l0,.279a1.78,1.78,0,0,0,.694,1.429l.107.081a1.739,1.739,0,0,0,1.594.264l.339-.113a2.226,2.226,0,0,1,1.732.132A2.3,2.3,0,0,1,21.1,7.8l.787,2.521a2.353,2.353,0,0,1-1.465,2.929l-.2.067a1.918,1.918,0,0,0-1.21,1.286,1.949,1.949,0,0,0,.259,1.652l.26.375a2.382,2.382,0,0,1-.508,3.229l-2.061,1.556a2.231,2.231,0,0,1-1.711.428,2.262,2.262,0,0,1-1.509-.957l-.118-.172a1.728,1.728,0,0,0-1.5-.777A1.773,1.773,0,0,0,10.7,20.7l-.231.328A2.252,2.252,0,0,1,8.614,22ZM12,10.5A1.5,1.5,0,1,0,13.5,12,1.5,1.5,0,0,0,12,10.5m0,5A3.5,3.5,0,1,1,15.5,12,3.5,3.5,0,0,1,12,15.5"
                />
              </g>
            </svg>