<svg xmlns="http://www.w3.org/2000/svg" xmlns:xlink="http://www.w3.org/1999/xlink" width="24" height="24" viewBox="0 0 24 24">
  <defs>
    <clipPath id="clip-path">
      <rect id="Rectangle_19673" data-name="Rectangle 19673" width="19.588" height="20" fill="none"/>
    </clipPath>
    <clipPath id="clip-Swagger_icon_24x24">
      <rect width="24" height="24"/>
    </clipPath>
  </defs>
  <g id="Swagger_icon_24x24" data-name="Swagger icon 24x24" clip-path="url(#clip-Swagger_icon_24x24)">
    <g id="Group_45067" data-name="Group 45067" transform="translate(2 2)">
      <g id="Group_45066" data-name="Group 45066" transform="translate(0 0)" clip-path="url(#clip-path)">
        <path id="Path_208198" data-name="Path 208198" d="M2.843,13.207c0-1.441-.365-2.269-1.991-2.465A.946.946,0,0,1,0,9.814V9.73a.941.941,0,0,1,.837-.924c1.544-.2,1.982-1.011,1.982-2.489V4.166A3.968,3.968,0,0,1,6.5.012.943.943,0,0,1,7.585.888a.935.935,0,0,1-.735.958A2.448,2.448,0,0,0,4.738,4.5c0,.717.027,1.153.027,1.9A3.038,3.038,0,0,1,2.409,9.723v.052c1.921.333,2.33,1.767,2.356,3.227l-.027,2.306a2.476,2.476,0,0,0,2.2,2.794.929.929,0,0,1,.725.956l0,.053a.944.944,0,0,1-1.063.879c-2.563-.349-3.78-1.748-3.78-4.324Z" transform="translate(0 0)" fill="#0c3058"/>
        <path id="Path_208199" data-name="Path 208199" d="M16.019,15.667c0,2.576-1.218,3.976-3.781,4.324a.942.942,0,0,1-1.062-.879l0-.052A.929.929,0,0,1,11.9,18.1a2.477,2.477,0,0,0,2.2-2.795L14.073,13c.026-1.459.435-2.894,2.356-3.227V9.724a3.038,3.038,0,0,1-2.356-3.33c0-.742.026-1.177.026-1.894a2.448,2.448,0,0,0-2.111-2.653.936.936,0,0,1-.735-.959A.943.943,0,0,1,12.336.012a3.968,3.968,0,0,1,3.683,4.155V6.319c0,1.477.436,2.29,1.981,2.488a.944.944,0,0,1,.838.924v.083a.947.947,0,0,1-.852.93c-1.627.2-1.991,1.023-1.991,2.464Z" transform="translate(0.75 0)" fill="#0c3058"/>
        <path id="Path_208200" data-name="Path 208200" d="M6.938,9.183A1.067,1.067,0,1,1,5.871,8.116,1.068,1.068,0,0,1,6.938,9.183" transform="translate(0.323 0.545)" fill="#0c3058"/>
        <path id="Path_208201" data-name="Path 208201" d="M10.22,9.183A1.067,1.067,0,1,1,9.153,8.116,1.068,1.068,0,0,1,10.22,9.183" transform="translate(0.543 0.545)" fill="#0c3058"/>
        <path id="Path_208202" data-name="Path 208202" d="M13.5,9.183a1.067,1.067,0,1,1-1.067-1.067A1.068,1.068,0,0,1,13.5,9.183" transform="translate(0.764 0.545)" fill="#0c3058"/>
      </g>
    </g>
  </g>
</svg>
